<mxfile host="app.diagrams.net" agent="Mozilla/5.0 (Windows NT 10.0; Win64; x64) AppleWebKit/537.36 (KHTML, like Gecko) Chrome/131.0.0.0 Safari/537.36 OPR/116.0.0.0" version="26.0.15">
  <diagram name="P치gina-1" id="iqnF0T2TScgrPpSrhgQv">
    <mxGraphModel dx="1705" dy="475" grid="0" gridSize="10" guides="1" tooltips="1" connect="1" arrows="1" fold="1" page="0" pageScale="1" pageWidth="827" pageHeight="1169" math="0" shadow="0">
      <root>
        <mxCell id="0" />
        <mxCell id="1" parent="0" />
        <mxCell id="yhkWl83lU3qBDJLbQ6Xq-15" value="Restaurantes" style="swimlane;html=1;fontStyle=1;align=center;verticalAlign=top;childLayout=stackLayout;horizontal=1;startSize=26;horizontalStack=0;resizeParent=1;resizeLast=0;collapsible=1;marginBottom=0;swimlaneFillColor=#ffffff;rounded=0;shadow=0;comic=0;labelBackgroundColor=none;strokeWidth=1;fillColor=none;fontFamily=Verdana;fontSize=12" parent="1" vertex="1">
          <mxGeometry x="-623" y="56" width="160" height="104" as="geometry" />
        </mxCell>
        <mxCell id="yhkWl83lU3qBDJLbQ6Xq-20" value="ID_restaurante (PK)" style="text;html=1;strokeColor=none;fillColor=none;align=left;verticalAlign=top;spacingLeft=4;spacingRight=4;whiteSpace=wrap;overflow=hidden;rotatable=0;points=[[0,0.5],[1,0.5]];portConstraint=eastwest;" parent="yhkWl83lU3qBDJLbQ6Xq-15" vertex="1">
          <mxGeometry y="26" width="160" height="26" as="geometry" />
        </mxCell>
        <mxCell id="QfwOb_tE-3xs9JVBUzqR-12" value="Nombre" style="text;html=1;strokeColor=none;fillColor=none;align=left;verticalAlign=top;spacingLeft=4;spacingRight=4;whiteSpace=wrap;overflow=hidden;rotatable=0;points=[[0,0.5],[1,0.5]];portConstraint=eastwest;" parent="yhkWl83lU3qBDJLbQ6Xq-15" vertex="1">
          <mxGeometry y="52" width="160" height="26" as="geometry" />
        </mxCell>
        <mxCell id="yhkWl83lU3qBDJLbQ6Xq-100" value="Ubicacion" style="text;html=1;strokeColor=none;fillColor=none;align=left;verticalAlign=top;spacingLeft=4;spacingRight=4;whiteSpace=wrap;overflow=hidden;rotatable=0;points=[[0,0.5],[1,0.5]];portConstraint=eastwest;" parent="yhkWl83lU3qBDJLbQ6Xq-15" vertex="1">
          <mxGeometry y="78" width="160" height="26" as="geometry" />
        </mxCell>
        <mxCell id="yhkWl83lU3qBDJLbQ6Xq-103" value="Platos" style="swimlane;html=1;fontStyle=1;align=center;verticalAlign=top;childLayout=stackLayout;horizontal=1;startSize=26;horizontalStack=0;resizeParent=1;resizeLast=0;collapsible=1;marginBottom=0;swimlaneFillColor=#ffffff;rounded=0;shadow=0;comic=0;labelBackgroundColor=none;strokeWidth=1;fillColor=none;fontFamily=Verdana;fontSize=12" parent="1" vertex="1">
          <mxGeometry x="-372" y="56" width="160" height="129" as="geometry" />
        </mxCell>
        <mxCell id="yhkWl83lU3qBDJLbQ6Xq-110" value="ID_restaurante" style="text;html=1;strokeColor=none;fillColor=none;align=left;verticalAlign=top;spacingLeft=4;spacingRight=4;whiteSpace=wrap;overflow=hidden;rotatable=0;points=[[0,0.5],[1,0.5]];portConstraint=eastwest;" parent="yhkWl83lU3qBDJLbQ6Xq-103" vertex="1">
          <mxGeometry y="26" width="160" height="25" as="geometry" />
        </mxCell>
        <mxCell id="yhkWl83lU3qBDJLbQ6Xq-104" value="ID_plato (PK)" style="text;html=1;strokeColor=none;fillColor=none;align=left;verticalAlign=top;spacingLeft=4;spacingRight=4;whiteSpace=wrap;overflow=hidden;rotatable=0;points=[[0,0.5],[1,0.5]];portConstraint=eastwest;" parent="yhkWl83lU3qBDJLbQ6Xq-103" vertex="1">
          <mxGeometry y="51" width="160" height="26" as="geometry" />
        </mxCell>
        <mxCell id="QfwOb_tE-3xs9JVBUzqR-14" value="Tipo" style="text;html=1;strokeColor=none;fillColor=none;align=left;verticalAlign=top;spacingLeft=4;spacingRight=4;whiteSpace=wrap;overflow=hidden;rotatable=0;points=[[0,0.5],[1,0.5]];portConstraint=eastwest;" parent="yhkWl83lU3qBDJLbQ6Xq-103" vertex="1">
          <mxGeometry y="77" width="160" height="26" as="geometry" />
        </mxCell>
        <mxCell id="yhkWl83lU3qBDJLbQ6Xq-108" value="Precio" style="text;html=1;strokeColor=none;fillColor=none;align=left;verticalAlign=top;spacingLeft=4;spacingRight=4;whiteSpace=wrap;overflow=hidden;rotatable=0;points=[[0,0.5],[1,0.5]];portConstraint=eastwest;" parent="yhkWl83lU3qBDJLbQ6Xq-103" vertex="1">
          <mxGeometry y="103" width="160" height="26" as="geometry" />
        </mxCell>
        <mxCell id="yhkWl83lU3qBDJLbQ6Xq-113" value="Rese침as" style="swimlane;html=1;fontStyle=1;align=center;verticalAlign=top;childLayout=stackLayout;horizontal=1;startSize=26;horizontalStack=0;resizeParent=1;resizeLast=0;collapsible=1;marginBottom=0;swimlaneFillColor=#ffffff;rounded=0;shadow=0;comic=0;labelBackgroundColor=none;strokeWidth=1;fillColor=none;fontFamily=Verdana;fontSize=12" parent="1" vertex="1">
          <mxGeometry x="-623" y="208" width="160" height="156" as="geometry" />
        </mxCell>
        <mxCell id="yhkWl83lU3qBDJLbQ6Xq-114" value="ID_restaurante" style="text;html=1;strokeColor=none;fillColor=none;align=left;verticalAlign=top;spacingLeft=4;spacingRight=4;whiteSpace=wrap;overflow=hidden;rotatable=0;points=[[0,0.5],[1,0.5]];portConstraint=eastwest;" parent="yhkWl83lU3qBDJLbQ6Xq-113" vertex="1">
          <mxGeometry y="26" width="160" height="26" as="geometry" />
        </mxCell>
        <mxCell id="C4z3CLEPb_KtCjz_JMxQ-10" value="ID_rese침a (PK)" style="text;html=1;strokeColor=none;fillColor=none;align=left;verticalAlign=top;spacingLeft=4;spacingRight=4;whiteSpace=wrap;overflow=hidden;rotatable=0;points=[[0,0.5],[1,0.5]];portConstraint=eastwest;" vertex="1" parent="yhkWl83lU3qBDJLbQ6Xq-113">
          <mxGeometry y="52" width="160" height="26" as="geometry" />
        </mxCell>
        <mxCell id="yhkWl83lU3qBDJLbQ6Xq-116" value="Rese침a" style="text;html=1;strokeColor=none;fillColor=none;align=left;verticalAlign=top;spacingLeft=4;spacingRight=4;whiteSpace=wrap;overflow=hidden;rotatable=0;points=[[0,0.5],[1,0.5]];portConstraint=eastwest;" parent="yhkWl83lU3qBDJLbQ6Xq-113" vertex="1">
          <mxGeometry y="78" width="160" height="26" as="geometry" />
        </mxCell>
        <mxCell id="QfwOb_tE-3xs9JVBUzqR-13" value="Sentimiento (IA)" style="text;html=1;strokeColor=none;fillColor=none;align=left;verticalAlign=top;spacingLeft=4;spacingRight=4;whiteSpace=wrap;overflow=hidden;rotatable=0;points=[[0,0.5],[1,0.5]];portConstraint=eastwest;" parent="yhkWl83lU3qBDJLbQ6Xq-113" vertex="1">
          <mxGeometry y="104" width="160" height="26" as="geometry" />
        </mxCell>
        <mxCell id="yhkWl83lU3qBDJLbQ6Xq-115" value="Valor" style="text;html=1;strokeColor=none;fillColor=none;align=left;verticalAlign=top;spacingLeft=4;spacingRight=4;whiteSpace=wrap;overflow=hidden;rotatable=0;points=[[0,0.5],[1,0.5]];portConstraint=eastwest;" parent="yhkWl83lU3qBDJLbQ6Xq-113" vertex="1">
          <mxGeometry y="130" width="160" height="26" as="geometry" />
        </mxCell>
        <mxCell id="QfwOb_tE-3xs9JVBUzqR-1" value="" style="edgeStyle=segmentEdgeStyle;endArrow=classic;html=1;curved=0;rounded=0;endSize=8;startSize=8;sourcePerimeterSpacing=0;targetPerimeterSpacing=0;fontSize=12;entryX=0;entryY=0.5;entryDx=0;entryDy=0;exitX=0;exitY=0.5;exitDx=0;exitDy=0;" parent="1" source="yhkWl83lU3qBDJLbQ6Xq-20" target="yhkWl83lU3qBDJLbQ6Xq-114" edge="1">
          <mxGeometry width="140" relative="1" as="geometry">
            <mxPoint x="-601" y="226" as="sourcePoint" />
            <mxPoint x="-461" y="286" as="targetPoint" />
            <Array as="points">
              <mxPoint x="-649" y="95" />
              <mxPoint x="-649" y="247" />
            </Array>
          </mxGeometry>
        </mxCell>
        <mxCell id="QfwOb_tE-3xs9JVBUzqR-2" value="Menu" style="swimlane;html=1;fontStyle=1;align=center;verticalAlign=top;childLayout=stackLayout;horizontal=1;startSize=26;horizontalStack=0;resizeParent=1;resizeLast=0;collapsible=1;marginBottom=0;swimlaneFillColor=#ffffff;rounded=0;shadow=0;comic=0;labelBackgroundColor=none;strokeWidth=1;fillColor=none;fontFamily=Verdana;fontSize=12" parent="1" vertex="1">
          <mxGeometry x="-156" y="222" width="160" height="78" as="geometry" />
        </mxCell>
        <mxCell id="QfwOb_tE-3xs9JVBUzqR-3" value="ID_menu (PK)" style="text;html=1;strokeColor=none;fillColor=none;align=left;verticalAlign=top;spacingLeft=4;spacingRight=4;whiteSpace=wrap;overflow=hidden;rotatable=0;points=[[0,0.5],[1,0.5]];portConstraint=eastwest;" parent="QfwOb_tE-3xs9JVBUzqR-2" vertex="1">
          <mxGeometry y="26" width="160" height="26" as="geometry" />
        </mxCell>
        <mxCell id="QfwOb_tE-3xs9JVBUzqR-4" value="Precio" style="text;html=1;strokeColor=none;fillColor=none;align=left;verticalAlign=top;spacingLeft=4;spacingRight=4;whiteSpace=wrap;overflow=hidden;rotatable=0;points=[[0,0.5],[1,0.5]];portConstraint=eastwest;" parent="QfwOb_tE-3xs9JVBUzqR-2" vertex="1">
          <mxGeometry y="52" width="160" height="26" as="geometry" />
        </mxCell>
        <mxCell id="QfwOb_tE-3xs9JVBUzqR-5" value="Platos-menu" style="swimlane;html=1;fontStyle=1;align=center;verticalAlign=top;childLayout=stackLayout;horizontal=1;startSize=26;horizontalStack=0;resizeParent=1;resizeLast=0;collapsible=1;marginBottom=0;swimlaneFillColor=#ffffff;rounded=0;shadow=0;comic=0;labelBackgroundColor=none;strokeWidth=1;fillColor=none;fontFamily=Verdana;fontSize=12" parent="1" vertex="1">
          <mxGeometry x="-154" y="56" width="160" height="78" as="geometry" />
        </mxCell>
        <mxCell id="QfwOb_tE-3xs9JVBUzqR-6" value="ID_menu (PK-CK)" style="text;html=1;strokeColor=none;fillColor=none;align=left;verticalAlign=top;spacingLeft=4;spacingRight=4;whiteSpace=wrap;overflow=hidden;rotatable=0;points=[[0,0.5],[1,0.5]];portConstraint=eastwest;" parent="QfwOb_tE-3xs9JVBUzqR-5" vertex="1">
          <mxGeometry y="26" width="160" height="26" as="geometry" />
        </mxCell>
        <mxCell id="QfwOb_tE-3xs9JVBUzqR-7" value="ID_plato (PK-CK)" style="text;html=1;strokeColor=none;fillColor=none;align=left;verticalAlign=top;spacingLeft=4;spacingRight=4;whiteSpace=wrap;overflow=hidden;rotatable=0;points=[[0,0.5],[1,0.5]];portConstraint=eastwest;" parent="QfwOb_tE-3xs9JVBUzqR-5" vertex="1">
          <mxGeometry y="52" width="160" height="26" as="geometry" />
        </mxCell>
        <mxCell id="QfwOb_tE-3xs9JVBUzqR-9" style="edgeStyle=none;curved=1;rounded=0;orthogonalLoop=1;jettySize=auto;html=1;exitX=1;exitY=0.5;exitDx=0;exitDy=0;entryX=0;entryY=0.5;entryDx=0;entryDy=0;fontSize=12;startSize=8;endSize=8;" parent="1" source="yhkWl83lU3qBDJLbQ6Xq-20" target="yhkWl83lU3qBDJLbQ6Xq-110" edge="1">
          <mxGeometry relative="1" as="geometry" />
        </mxCell>
        <mxCell id="QfwOb_tE-3xs9JVBUzqR-8" style="edgeStyle=none;curved=1;rounded=0;orthogonalLoop=1;jettySize=auto;html=1;exitX=1;exitY=0.5;exitDx=0;exitDy=0;fontSize=12;startSize=8;endSize=8;entryX=0;entryY=0.48;entryDx=0;entryDy=0;entryPerimeter=0;" parent="1" source="yhkWl83lU3qBDJLbQ6Xq-104" target="QfwOb_tE-3xs9JVBUzqR-7" edge="1">
          <mxGeometry relative="1" as="geometry">
            <mxPoint x="-133" y="95" as="targetPoint" />
          </mxGeometry>
        </mxCell>
        <mxCell id="QfwOb_tE-3xs9JVBUzqR-10" value="" style="edgeStyle=segmentEdgeStyle;endArrow=classic;html=1;curved=0;rounded=0;endSize=8;startSize=8;sourcePerimeterSpacing=0;targetPerimeterSpacing=0;fontSize=12;exitX=1;exitY=0.5;exitDx=0;exitDy=0;entryX=0.998;entryY=0.18;entryDx=0;entryDy=0;entryPerimeter=0;" parent="1" source="QfwOb_tE-3xs9JVBUzqR-3" target="QfwOb_tE-3xs9JVBUzqR-6" edge="1">
          <mxGeometry width="140" relative="1" as="geometry">
            <mxPoint x="-100" y="218" as="sourcePoint" />
            <mxPoint x="6" y="94" as="targetPoint" />
            <Array as="points">
              <mxPoint x="45" y="261" />
              <mxPoint x="45" y="87" />
            </Array>
          </mxGeometry>
        </mxCell>
        <mxCell id="C4z3CLEPb_KtCjz_JMxQ-3" value="FK" style="rounded=1;whiteSpace=wrap;html=1;" vertex="1" parent="1">
          <mxGeometry x="-435" y="79" width="34" height="24" as="geometry" />
        </mxCell>
        <mxCell id="C4z3CLEPb_KtCjz_JMxQ-4" value="FK" style="rounded=1;whiteSpace=wrap;html=1;" vertex="1" parent="1">
          <mxGeometry x="-665" y="166" width="34" height="24" as="geometry" />
        </mxCell>
        <mxCell id="C4z3CLEPb_KtCjz_JMxQ-5" value="FK" style="rounded=1;whiteSpace=wrap;html=1;" vertex="1" parent="1">
          <mxGeometry x="-203" y="106" width="34" height="24" as="geometry" />
        </mxCell>
        <mxCell id="C4z3CLEPb_KtCjz_JMxQ-6" value="FK" style="rounded=1;whiteSpace=wrap;html=1;" vertex="1" parent="1">
          <mxGeometry x="26" y="179" width="34" height="24" as="geometry" />
        </mxCell>
      </root>
    </mxGraphModel>
  </diagram>
</mxfile>
